<?xml version="1.0" encoding="utf-8"?>
<!-- Generator: Adobe Illustrator 26.2.1, SVG Export Plug-In . SVG Version: 6.00 Build 0)  -->
<svg version="1.1" id="Layer_1" xmlns="http://www.w3.org/2000/svg" xmlns:xlink="http://www.w3.org/1999/xlink" x="0px" y="0px"
	 viewBox="0 0 156.1 132" style="enable-background:new 0 0 156.1 132;" xml:space="preserve">
<style type="text/css">
	.st0{opacity:0.25;fill:#FFFFFF;enable-background:new    ;}
	.st1{fill:#FFFFFF;}
</style>
<path class="st0" d="M142.9,17h-22.3v-5.2c0-2.5-2.1-4.6-4.6-4.6h-2c-2.5,0-4.6,2.1-4.6,4.6V17H46.9v-5.2c0-2.5-2.1-4.6-4.6-4.6h-2
	c-2.5,0-4.6,2.1-4.6,4.6V17H13.5c-2.8,0-5.1,2.3-5.1,5.1v97c0,2.8,2.3,5.1,5.1,5.1h129.4c2.8,0,5.1-2.3,5.1-5.1v-97
	C147.9,19.3,145.7,17,142.9,17z"/>
<rect x="18.3" y="48.1" class="st1" width="19.4" height="19.4"/>
<rect x="43.4" y="48.1" class="st1" width="19.4" height="19.4"/>
<rect x="68.5" y="48.1" class="st1" width="19.4" height="19.4"/>
<rect x="93.6" y="48.1" class="st1" width="19.4" height="19.4"/>
<rect x="118.7" y="48.1" class="st1" width="19.4" height="19.4"/>
<rect x="18.3" y="71.9" class="st1" width="19.4" height="19.4"/>
<rect x="43.4" y="71.9" class="st1" width="19.4" height="19.4"/>
<rect x="68.5" y="71.9" class="st1" width="19.4" height="19.4"/>
<rect x="93.6" y="71.9" class="st1" width="19.4" height="19.4"/>
<rect x="118.7" y="71.9" class="st1" width="19.4" height="19.4"/>
<rect x="18.3" y="95.7" class="st1" width="19.4" height="19.4"/>
<rect x="43.4" y="95.7" class="st1" width="19.4" height="19.4"/>
<rect x="68.5" y="95.7" class="st1" width="19.4" height="19.4"/>
<rect x="93.6" y="95.7" class="st1" width="19.4" height="19.4"/>
<rect x="118.7" y="95.7" class="st1" width="19.4" height="19.4"/>
<path class="st1" d="M142.9,17h-22.3v-5.2c0-2.5-2.1-4.6-4.6-4.6h-2c-2.5,0-4.6,2.1-4.6,4.6V17H46.9v-5.2c0-2.5-2.1-4.6-4.6-4.6h-2
	c-2.5,0-4.6,2.1-4.6,4.6V17H13.5c-2.8,0-5.1,2.3-5.1,5.1v97c0,2.8,2.3,5.1,5.1,5.1h129.4c2.8,0,5.1-2.3,5.1-5.1v-97
	C147.9,19.3,145.7,17,142.9,17z M112.7,11.7c0-0.8,0.6-1.4,1.4-1.4h2c0.8,0,1.4,0.6,1.4,1.4v11.8c0,0.8-0.6,1.4-1.4,1.4
	c0,0,0,0-0.1,0h-2c-0.8,0-1.4-0.6-1.4-1.4L112.7,11.7z M39,11.8c0-0.8,0.6-1.4,1.4-1.4h2c0.8,0,1.4,0.6,1.4,1.4v11.7
	c0,0.8-0.6,1.4-1.4,1.4h-2c-0.8,0-1.4-0.6-1.4-1.4V11.8z M13.5,20.2h22.3v3.3c0,2.5,2.1,4.6,4.6,4.6h2c2.5,0,4.6-2.1,4.6-4.6v-3.3
	h62.5v3.3c0,2.5,2.1,4.6,4.6,4.6h2c2.5,0,4.6-2.1,4.6-4.6v-3.3H143c1,0,1.9,0.8,1.9,1.9c0,0,0,0,0,0v16H11.6v-16
	C11.6,21.1,12.5,20.2,13.5,20.2L13.5,20.2z M142.9,121H13.5c-1,0-1.9-0.8-1.9-1.9l0,0V40.8h133.1v78.4
	C144.8,120.1,143.9,121,142.9,121C142.9,121,142.9,121,142.9,121z"/>
</svg>
